<svg xmlns="http://www.w3.org/2000/svg" viewBox="0 0 301.446 63.813"><path d="M81.836 31.908c0-11.591 6.302-20.257 18.57-20.257 9.9 0 16.317 6.527 16.936 14.855h-7.877c-.394-4.22-3.207-7.821-9.06-7.821-7.26 0-10.692 5.288-10.692 13.223s3.432 13.167 10.692 13.167c5.626 0 8.384-3.32 9.115-7.484h7.822c-.844 8.103-7.09 14.46-16.937 14.46-12.267 0-18.569-8.72-18.569-20.143M202.9 11.68c-4.537 0-8.713 1.53-12.079 4.077l4.408 6.158a12.424 12.424 0 0 1 7.671-2.647c6.899 0 11.498 5.592 11.498 12.491S209.8 44.25 202.9 44.25a12.42 12.42 0 0 1-7.18-2.28l-4.615 6.003c3.316 2.42 7.385 3.866 11.795 3.866 11.072 0 20.08-9.008 20.08-20.08s-9.008-20.08-20.08-20.08z" fill="#fff"/><path fill="#fff" d="M252.11756 37.9893L251.90046 37.9893 237.92543 13.23412 227.9051 13.23412 227.9051 51.15265 236.30049 51.15265 236.30049 26.55948 236.51753 26.55948 250.49256 51.15265 260.56798 51.15265 260.56798 13.23412 252.11756 13.23412 252.11756 37.9893z"/><path d="M134.887 45.497c-4.744 0-6.495-3.897-6.495-8.528s1.638-8.528 6.495-8.528c4.8 0 6.494 3.955 6.494 8.528 0 4.63-1.75 8.528-6.494 8.528m6.212-20.048h-.225c-1.47-1.921-3.898-3.67-8.077-3.67-7.68 0-12.085 6.437-12.085 15.19 0 8.698 4.405 15.193 12.085 15.193 4.18 0 6.722-1.695 8.134-3.672h.224l.941 3.163h6.571V22.287h-6.777l-.79 3.162zm151.73 6.776c0 8.132-2.863 11.894-8.262 11.894-6.528 0-10.072-4.278-10.072-12.213 0-7.933 3.544-12.264 10.072-12.264 5.515 0 7.822 3.037 8.438 6.246l7.617-2.841c-1.79-6.442-7.242-11.396-16.055-11.396-12.66 0-19.074 8.89-19.074 20.255 0 11.198 5.317 20.146 17.977 20.146 8.695 0 10.198-9.105 10.198-9.105h.422l-.957 8.206h8.313V32.225h-8.617zM176.093 51.68V28.862h-6.86c-4.52 0-7.118 3.107-7.118 8.415v14.404h-7.173V22.309h6.383l.564 6.248h.226c1.3-2.767 3.898-6.7 7.627-6.7h6.632v-7.042l6.722-1.58h.564v9.074h5.712l.819 6.44h-6.53v22.932h-7.568zM57.526 12.254a26.648 26.648 0 0 1 1.22 7.988c0 14.727-15.339 43.57-26.666 43.57 17.716 0 32.08-14.361 32.08-32.079 0-7.336-2.49-14.075-6.634-19.48zM5.413 20.242c0-2.784.43-5.466 1.22-7.988C2.49 17.658 0 24.397 0 31.734 0 49.45 14.362 63.812 32.08 63.812c-10.94 0-26.667-28.844-26.667-43.571z" fill="#fff"/><path d="M21.807 36.784c0-9.136 4.6-16.542 10.273-16.542s10.272 7.406 10.272 16.542c0 .281-.016.591-.026.891 5.976-3.517 9.995-9.998 9.995-17.433C52.321 9.062 43.26 0 32.08 0S11.838 9.063 11.838 20.242c0 7.435 4.02 13.916 9.995 17.433-.01-.3-.026-.61-.026-.891zM32.08 5.586a5.68 5.68 0 1 1 0 11.36 5.68 5.68 0 0 1 0-11.36zm-6.205 36.441c.281 6.537 4.462 17.576 6.205 17.576 1.742 0 5.923-11.04 6.204-17.576a13.898 13.898 0 0 1-6.204 1.467c-2.232 0-4.334-.537-6.205-1.467z" fill="#fff"/></svg>