<svg width="101" height="101" xmlns="http://www.w3.org/2000/svg" xmlns:xlink="http://www.w3.org/1999/xlink" overflow="hidden"><defs><clipPath id="clip0"><rect x="822" y="122" width="101" height="101"/></clipPath><clipPath id="clip1"><rect x="822" y="123" width="100" height="99"/></clipPath><clipPath id="clip2"><rect x="822" y="123" width="100" height="99"/></clipPath></defs><g clip-path="url(#clip0)" transform="translate(-822 -122)"><g clip-path="url(#clip1)"><g clip-path="url(#clip2)"><g><path d="M49.7719 1.99088C23.3832 1.99088 1.99088 23.3832 1.99088 49.7719 1.99088 76.1606 23.3832 97.5529 49.7719 97.5529 76.1606 97.5529 97.5529 76.1606 97.5529 49.7719 97.5529 23.3832 76.1606 1.99088 49.7719 1.99088ZM55.7445 84.1145 43.7993 84.1145 43.7993 72.1692 55.7445 72.1692ZM58.9399 56.6205C56.8684 57.7955 55.6332 60.035 55.7445 62.4139L55.7445 63.2103 43.7993 63.2103 43.7993 62.4139C43.6991 55.4757 47.5305 49.0773 53.6939 45.8897 56.7781 44.3879 58.734 41.257 58.7308 37.8266 58.6052 32.9317 54.6668 28.9933 49.7719 28.8677 44.824 28.8677 40.8129 32.8787 40.8129 37.8266L28.8677 37.8266C28.8677 26.2816 38.2268 16.9224 49.7719 16.9224 61.2542 17.0726 70.526 26.3443 70.6761 37.8266 70.7101 45.8287 66.145 53.139 58.9399 56.6205Z" fill="#1A2747" transform="matrix(1.00458 0 0 1 822 123)"/><text fill="#1A2747" font-family="Arial,Arial_MSFontService,sans-serif" font-weight="700" font-size="5" transform="matrix(1 0 0 0.995438 822 237)">Created by Gregor Cresnar</text><text fill="#1A2747" font-family="Arial,Arial_MSFontService,sans-serif" font-weight="700" font-size="5" transform="matrix(1 0 0 0.995438 822 242)">from the Noun Project</text></g></g></g></g></svg>