<svg width="3779.53" height="3779.53" viewBox="0 0 1000 1000" xmlns="http://www.w3.org/2000/svg" xmlns:xlink="http://www.w3.org/1999/xlink" overflow="hidden"><path d="M675 375C662 375 649 380 640 390 630 399 625 412 625 425 625 438 630 451 640 460 649 470 662 475 675 475 688 475 701 470 710 460 720 451 725 438 725 425 725 412 720 399 710 390 701 380 688 375 675 375 675 375 675 375 675 375M500 375C487 375 474 380 465 390 455 399 450 412 450 425 450 438 455 451 465 460 474 470 487 475 500 475 513 475 526 470 535 460 545 451 550 438 550 425 550 412 545 399 535 390 526 380 513 375 500 375 500 375 500 375 500 375M325 375C312 375 299 380 290 390 280 399 275 412 275 425 275 438 280 451 290 460 299 470 312 475 325 475 338 475 351 470 360 460 370 451 375 438 375 425 375 412 370 399 360 390 351 380 338 375 325 375 325 375 325 375 325 375M498 124C591 125 695 151 779 201 862 251 927 328 929 427 932 536 854 625 749 677 649 728 523 748 407 724 288 846 144 853 144 853 133 853 123 847 119 837 115 826 118 815 127 808 127 808 151 788 178 758 201 732 224 698 234 667 195 642 157 617 128 582 94 542 72 489 73 417 74 322 141 248 225 199 309 150 411 124 498 124 498 124 498 124 498 124" id="path" fill="#1A2747"/></svg>