<svg width="181" height="180" xmlns="http://www.w3.org/2000/svg" xmlns:xlink="http://www.w3.org/1999/xlink" overflow="hidden"><g transform="translate(-690 -445)"><g><g><path d="M0 0C-9.35034 0-16.9378-7.60471-16.9378-16.955L-16.9378-146.961C-16.9378-156.311-9.35034-163.916 0-163.916L129.989-163.916C139.322-163.916 146.909-156.311 146.909-146.961L146.909-16.955C146.909-7.60471 139.322 0 129.989 0L0 0Z" fill="#FFFFFF" transform="matrix(1.00079 0 0 -1 714.248 450.959)"/><path d="M0 0-129.989 0C-141.275 0-150.418-9.14293-150.418-20.429L-150.418-150.418C-150.418-161.686-141.275-170.847-129.989-170.847L0-170.847C11.2688-170.847 20.3944-161.686 20.3944-150.418L20.3944-20.429C20.3944-9.14293 11.2688 0 0 0" fill="#1A2747" transform="matrix(1.00079 0 0 -1 844.329 447.509)"/><path d="M0 0C-3.11102 0-6.08377 0.691337-8.74541 1.88389-11.4762 3.16287-14.5526 3.90605-17.7846 3.90605-20.9994 3.90605-24.0758 3.16287-26.8066 1.88389-29.4682 0.691337-32.441 0-35.5866 0-38.6803 0-41.6531 0.691337-44.3493 1.88389-47.0973 3.16287-50.1565 3.90605-53.3712 3.90605-56.5687 3.90605-59.6451 3.16287-62.4105 1.88389-65.0548 0.691337-68.0621 0-71.1559 0-74.2669 0-77.2742 0.691337-79.9359 1.88389-82.6666 3.16287-85.7431 3.90605-88.9405 3.90605-92.1898 3.90605-95.2663 3.16287-97.997 1.88389-100.659 0.691337-103.631 0-106.742 0-109.871 0-112.843 0.691337-115.557 1.88389-118.253 3.16287-121.347 3.90605-124.562 3.90605-127.776 3.90605-130.836 3.16287-133.584 1.88389-136.245 0.691337-139.253 0-142.346 0L-142.346 13.1354C-139.253 13.1354-136.245 13.844-133.584 15.0366-130.836 16.2983-127.776 17.0415-124.562 17.0415-121.347 17.0415-118.253 16.2983-115.557 15.0366-112.843 13.844-109.871 13.1354-106.742 13.1354-103.631 13.1354-100.659 13.844-97.997 15.0366-95.2663 16.2983-92.1898 17.0415-88.9405 17.0415-85.7431 17.0415-82.6666 16.2983-79.9359 15.0366-77.2742 13.844-74.2669 13.1354-71.1559 13.1354-68.0621 13.1354-65.0548 13.844-62.4105 15.0366-59.6451 16.2983-56.5687 17.0415-53.3712 17.0415-50.1565 17.0415-47.0973 16.2983-44.3493 15.0366-41.6531 13.844-38.6803 13.1354-35.5866 13.1354-32.441 13.1354-29.4682 13.844-26.8066 15.0366-24.0758 16.2983-20.9994 17.0415-17.7846 17.0415-14.5526 17.0415-11.4762 16.2983-8.74541 15.0366-6.08377 13.844-3.11102 13.1354 0 13.1354L0 0Z" fill="#FFFFFF" transform="matrix(1.00079 0 0 -1 850.476 588.05)"/><path d="M0 0-12.8589 30.6262 0.103701 36.0878-3.24928 44.0555-11.9428 40.3914C-11.9428 40.3914-13.6712 39.6655-16.2119 38.5939L-22.6759 53.9416-30.6262 50.6059-24.1795 35.2409C-30.9892 32.3891-38.0754 29.3991-38.0754 29.3991L-34.7397 21.4315-20.8265 27.2732-7.96766-3.3357C-34.4632-14.4317-60.25-25.4066-58.6772-25.4066-55.4625-25.4066-52.3515-26.1498-49.6553-27.4115-46.9591-28.6041-43.9863-29.2954-40.8407-29.2954-37.747-29.2954-34.7743-28.6041-32.0953-27.4115-29.3645-26.1498-26.2881-25.4066-23.0561-25.4066-19.8414-25.4066-16.7822-26.1498-14.0514-27.4115-11.3725-28.6041-8.36518-29.2954-5.27145-29.2954-2.16043-29.2954 0.846888-28.6041 3.47397-27.4115 6.23932-26.1498 9.31577-25.4066 12.5305-25.4066 15.7279-25.4066 18.8044-26.1498 21.5352-27.4115 24.2314-28.6041 27.2041-29.2954 30.3151-29.2954 31.1966-29.2954 32.0435-29.1226 32.9076-29.0189 34.4632-28.6732 36.0532-28.5177 37.5742-27.9127L37.6779-27.8609C40.4951-12.0811 46.9936 19.513 46.9936 19.513 46.9936 19.513 24.3351 10.1627 0 0" fill="#FFFFFF" transform="matrix(1.00079 0 0 -1 784.485 533.342)"/></g></g></g></svg>