<svg width="3779.53" height="3779.53" viewBox="0 0 1000 1000" xmlns="http://www.w3.org/2000/svg" xmlns:xlink="http://www.w3.org/1999/xlink" overflow="hidden"><path d="M499 50C464 50 431 69 413 100 413 100 13 788 13 788-5 819-5 857 13 888 31 919 64 938 100 938 100 938 900 938 900 938 936 938 969 919 987 888 1005 857 1005 819 987 788 987 788 587 100 587 100 570 70 539 52 505 50 503 50 501 50 499 50 499 50 499 50 499 50M475 300C475 300 525 300 525 300 575 300 575 325 575 350 575 400 550 575 550 575 550 575 550 600 525 600 525 600 475 600 475 600 450 600 450 575 450 575 450 575 425 400 425 350 425 325 425 300 475 300 475 300 475 300 475 300M500 625C520 625 539 633 553 647 567 661 575 680 575 700 575 741 541 775 500 775 459 775 425 741 425 700 425 680 433 661 447 647 461 633 480 625 500 625 500 625 500 625 500 625" id="path" fill="#1A2747"/></svg>